<svg width="256" height="256" viewBox="0 0 256 256" fill="none" xmlns="http://www.w3.org/2000/svg">
<rect width="256" height="256" fill="#05000F" style="fill:#05000F;fill:color(display-p3 0.0196 0.0000 0.0588);fill-opacity:1;"/>
<path d="M151.231 44.7667C156.882 42.1493 163.415 40.827 169.464 43.3525L170.673 43.9108L170.688 43.9182L172.327 44.8858C175.981 47.3066 178.399 50.9178 179.897 54.83C181.378 58.6955 182.097 63.1463 182.27 67.863L182.307 69.895L182.344 77.1521L167.885 77.2266L167.848 69.9694L167.729 66.8581C167.518 63.9672 167.039 61.7054 166.402 60.0402C165.582 57.8984 164.676 57.1474 164.118 56.8545L163.777 56.7131C162.849 56.4032 160.9 56.2801 157.297 57.9487C153.266 59.8162 148.285 63.4618 142.704 68.9794C136.727 74.8883 130.405 82.6088 124.182 91.7407C125.447 91.7229 126.722 91.7035 128 91.7035C152.518 91.7038 175.022 95.0226 191.643 100.583C199.913 103.351 207.131 106.807 212.427 110.996C217.64 115.121 221.999 120.812 222 127.997C221.999 134.188 218.73 139.299 214.555 143.173C210.381 147.046 204.71 150.284 198.249 152.961L191.561 155.73L186.044 142.31L192.733 139.541C198.318 137.227 202.284 134.79 204.737 132.515C207.187 130.242 207.54 128.714 207.541 127.997C207.54 127.164 207.037 125.217 203.477 122.399C199.992 119.642 194.497 116.839 187.068 114.353C172.283 109.407 151.396 106.225 128 106.225C123.534 106.225 119.156 106.338 114.898 106.56C112.769 110.263 110.687 114.122 108.662 118.112C106.979 121.426 105.398 124.724 103.916 127.982C105.401 131.246 106.983 134.553 108.669 137.874L110.686 141.759C120.828 160.939 132.296 176.731 142.704 187.021C148.282 192.535 153.26 196.179 157.289 198.044C161.404 199.949 163.367 199.517 164.111 199.139L164.704 198.722C165.376 198.119 166.248 196.872 166.928 194.294C167.834 190.859 168.133 185.92 167.529 179.548C166.327 166.86 161.705 150.085 153.804 131.882L160.433 128.987L167.062 126.083C175.356 145.195 180.538 163.499 181.929 178.171C182.621 185.478 182.419 192.3 180.913 198.008C179.411 203.7 176.342 209.168 170.681 212.068L170.673 212.075C164.297 215.332 157.267 214.016 151.238 211.226C145.115 208.392 138.764 203.508 132.553 197.367C120.368 185.32 107.548 167.277 96.5899 146.017C92.8491 156.512 90.3197 166.258 89.0637 174.635C87.8988 182.408 87.8937 188.592 88.7597 192.96C89.6462 197.428 91.1497 198.761 91.8888 199.139L92.445 199.34C94.0304 199.723 97.7308 199.4 104.383 194.665L110.278 190.467L118.642 202.309L112.747 206.507L111.19 207.571C103.306 212.824 93.7821 216.395 85.3266 212.068C78.9482 208.808 75.8718 202.332 74.5748 195.797C73.2585 189.157 73.4627 181.125 74.7602 172.47C76.7107 159.462 81.2735 144.083 88.1072 127.982C85.6382 122.164 83.4711 116.436 81.6117 110.885C77.0172 111.906 72.7681 113.07 68.9321 114.353C61.5021 116.839 56.0083 119.642 52.5226 122.399C48.9599 125.218 48.4599 127.164 48.4593 127.997C48.4609 129.211 49.6936 132.387 56.6454 136.348L58.1135 137.144L64.5275 140.509L57.8244 153.378L51.4179 150.014L49.7569 149.105C41.4987 144.435 34.0013 137.525 34 127.997C34.0007 120.811 38.3582 115.121 43.5727 110.996C48.869 106.807 56.0859 103.351 64.357 100.583C68.4054 99.2289 72.8061 98.0012 77.4964 96.9287C76.3183 92.2462 75.4035 87.7523 74.7676 83.516C73.4693 74.864 73.2604 66.8419 74.5748 60.204C75.8701 53.6661 78.9459 47.1793 85.3266 43.9182C92.0126 40.4974 99.3764 42.0733 105.814 45.2803L108.513 46.7466L114.756 50.4087L107.453 62.943L101.209 59.2809L99.2075 58.1943C94.8559 56.0473 92.6766 56.4519 91.8888 56.8545C91.1497 57.2323 89.6452 58.5643 88.7597 63.0323C87.8947 67.4001 87.9046 73.5852 89.0712 81.3575C89.674 85.3725 90.5674 89.704 91.748 94.2789C96.4426 93.581 101.334 93.0093 106.378 92.5893C114.822 78.8907 123.851 67.2368 132.553 58.6334C138.765 52.4912 145.108 47.6036 151.231 44.7667ZM167.062 126.083L153.804 131.882L150.919 125.227L164.177 119.43L167.062 126.083ZM96.6419 100.955C92.3654 100.957 88.9021 104.433 88.9006 108.726C88.9006 113.02 92.3644 116.503 96.6419 116.504C100.921 116.504 104.391 113.021 104.391 108.726C104.389 104.432 100.92 100.955 96.6419 100.955Z" fill="white" style="fill:white;fill-opacity:1;"/>
</svg>
